<svg width="16" height="17" viewBox="0 0 16 17" fill="none" xmlns="http://www.w3.org/2000/svg">
<path d="M14.2857 0.873047H1.71429C0.767857 0.873047 0 1.6409 0 2.58733V15.1588C0 16.1052 0.767857 16.873 1.71429 16.873H14.2857C15.2321 16.873 16 16.1052 16 15.1588V2.58733C16 1.6409 15.2321 0.873047 14.2857 0.873047ZM9.90357 14.5766C9.60357 14.6302 9.49286 14.4445 9.49286 14.2909C9.49286 14.098 9.5 13.1123 9.5 12.3159C9.5 11.7588 9.31429 11.4052 9.09643 11.2195C10.4179 11.073 11.8107 10.8909 11.8107 8.60876C11.8107 7.95876 11.5786 7.63376 11.2 7.2159C11.2607 7.06233 11.4643 6.43019 11.1393 5.60876C10.6429 5.45519 9.50714 6.24805 9.50714 6.24805C9.03572 6.1159 8.525 6.04805 8.02143 6.04805C7.51786 6.04805 7.00714 6.1159 6.53571 6.24805C6.53571 6.24805 5.4 5.45519 4.90357 5.60876C4.57857 6.42662 4.77857 7.05876 4.84286 7.2159C4.46429 7.63376 4.28571 7.95876 4.28571 8.60876C4.28571 10.8802 5.61786 11.073 6.93929 11.2195C6.76786 11.373 6.61429 11.6373 6.56071 12.0159C6.22143 12.1695 5.35357 12.4338 4.83571 11.5195C4.51071 10.9552 3.925 10.9088 3.925 10.9088C3.34643 10.9016 3.88571 11.273 3.88571 11.273C4.27143 11.4516 4.54286 12.1373 4.54286 12.1373C4.88929 13.198 6.54643 12.8409 6.54643 12.8409C6.54643 13.3373 6.55357 14.1445 6.55357 14.2909C6.55357 14.4445 6.44643 14.6302 6.14286 14.5766C3.78571 13.7873 2.13571 11.5445 2.13571 8.92305C2.13571 5.64448 4.64286 3.15519 7.92143 3.15519C11.2 3.15519 13.8571 5.64448 13.8571 8.92305C13.8607 11.5445 12.2607 13.7909 9.90357 14.5766ZM6.4 12.3945C6.33214 12.4088 6.26786 12.3802 6.26071 12.3338C6.25357 12.2802 6.3 12.2338 6.36786 12.2195C6.43571 12.2123 6.5 12.2409 6.50714 12.2873C6.51786 12.3338 6.47143 12.3802 6.4 12.3945ZM6.06071 12.3623C6.06071 12.4088 6.00714 12.448 5.93571 12.448C5.85714 12.4552 5.80357 12.4159 5.80357 12.3623C5.80357 12.3159 5.85714 12.2766 5.92857 12.2766C5.99643 12.2695 6.06071 12.3088 6.06071 12.3623ZM5.57143 12.323C5.55714 12.3695 5.48571 12.3909 5.425 12.3695C5.35714 12.3552 5.31071 12.3016 5.325 12.2552C5.33929 12.2088 5.41071 12.1873 5.47143 12.2016C5.54286 12.223 5.58929 12.2766 5.57143 12.323ZM5.13214 12.1302C5.1 12.1695 5.03214 12.1623 4.97857 12.1088C4.925 12.0623 4.91071 11.9945 4.94643 11.9623C4.97857 11.923 5.04643 11.9302 5.1 11.9838C5.14643 12.0302 5.16429 12.1016 5.13214 12.1302ZM4.80714 11.8052C4.775 11.8266 4.71429 11.8052 4.675 11.7516C4.63571 11.698 4.63571 11.6373 4.675 11.6123C4.71429 11.5802 4.775 11.6052 4.80714 11.6588C4.84643 11.7123 4.84643 11.7766 4.80714 11.8052ZM4.575 11.4588C4.54286 11.4909 4.48929 11.473 4.45 11.4373C4.41071 11.3909 4.40357 11.3373 4.43571 11.3123C4.46786 11.2802 4.52143 11.298 4.56071 11.3338C4.6 11.3802 4.60714 11.4338 4.575 11.4588ZM4.33571 11.1945C4.32143 11.2266 4.275 11.2338 4.23571 11.2088C4.18929 11.1873 4.16786 11.148 4.18214 11.1159C4.19643 11.0945 4.23571 11.0838 4.28214 11.1016C4.32857 11.1266 4.35 11.1659 4.33571 11.1945Z" fill="#B4B4B4"/>
</svg>
