<svg width="16" height="17" viewBox="0 0 16 17" fill="none" xmlns="http://www.w3.org/2000/svg">
<path d="M1.96429 14.5873V15.0873H2.46429H4.83571H4.83929H5.33929V14.5873V6.95162V6.45162H4.83929H2.46429H1.96429V6.95162V14.5873ZM13.725 15.0873H14.225V14.5873V10.4016C14.225 9.36173 14.1177 8.32555 13.6247 7.54383C13.0985 6.70941 12.2021 6.26233 10.8786 6.26233C10.165 6.26233 9.56557 6.47051 9.1 6.77866V6.45162H8.6H6.325H5.825V6.95162V14.5873V15.0873H6.325H8.69643H9.19643V14.5873V10.8088C9.19643 10.3198 9.2476 9.94221 9.38329 9.69634C9.44465 9.58516 9.52053 9.50656 9.61953 9.45178C9.72142 9.3954 9.87745 9.34805 10.1214 9.34805C10.3449 9.34805 10.4679 9.39939 10.5396 9.44958C10.6125 9.5006 10.676 9.58099 10.7278 9.71211C10.8427 10.003 10.8536 10.4084 10.8536 10.873V14.5873V15.0873H11.3536H13.725ZM1.13929 1.37305H14.8571C15.2055 1.37305 15.5 1.66299 15.5 2.02662V15.7195C15.5 16.0831 15.2055 16.373 14.8571 16.373H1.13929C0.792919 16.373 0.5 16.0851 0.5 15.7195V2.02662C0.5 1.66094 0.79292 1.37305 1.13929 1.37305ZM1.775 4.53376C1.775 5.5662 2.6123 6.40876 3.65 6.40876C4.68686 6.40876 5.525 5.57062 5.525 4.53376C5.525 3.50048 4.68329 2.65876 3.65 2.65876C2.6123 2.65876 1.775 3.50132 1.775 4.53376Z" fill="#B4B4B4" stroke="#B4B4B4"/>
</svg>
