<svg width="13" height="9" viewBox="0 0 13 9" fill="none" xmlns="http://www.w3.org/2000/svg">
<path d="M12.7537 3.01471C12.8527 2.95013 13 3.01055 13 3.11263V7.37305C13 7.92513 12.4541 8.37305 11.7812 8.37305H1.21875C0.545898 8.37305 0 7.92513 0 7.37305V3.11471C0 3.01055 0.144727 2.95221 0.246289 3.0168C0.815039 3.3793 1.56914 3.83971 4.15898 5.38346C4.69473 5.7043 5.59863 6.3793 6.5 6.37513C7.40645 6.38138 8.32812 5.6918 8.84355 5.38346C11.4334 3.83971 12.185 3.37721 12.7537 3.01471ZM6.5 5.70638C7.08906 5.71471 7.93711 5.09805 8.36367 4.84388C11.733 2.83763 11.9895 2.66263 12.7664 2.16263C12.9137 2.06888 13 1.92305 13 1.76888V1.37305C13 0.820964 12.4541 0.373047 11.7812 0.373047H1.21875C0.545898 0.373047 0 0.820964 0 1.37305V1.76888C0 1.92305 0.0863281 2.0668 0.233594 2.16263C1.01055 2.66055 1.26699 2.83763 4.63633 4.84388C5.06289 5.09805 5.91094 5.71471 6.5 5.70638Z" fill="white"/>
</svg>
