<svg width="16" height="17" viewBox="0 0 16 17" fill="none" xmlns="http://www.w3.org/2000/svg">
<path d="M14.2857 0.873047H1.71429C0.767857 0.873047 0 1.6409 0 2.58733V15.1588C0 16.1052 0.767857 16.873 1.71429 16.873H14.2857C15.2321 16.873 16 16.1052 16 15.1588V2.58733C16 1.6409 15.2321 0.873047 14.2857 0.873047ZM12.5393 6.54448C12.5464 6.64448 12.5464 6.74805 12.5464 6.84805C12.5464 9.94448 10.1893 13.5123 5.88214 13.5123C4.55357 13.5123 3.32143 13.1266 2.28571 12.4623C2.475 12.4838 2.65714 12.4909 2.85 12.4909C3.94643 12.4909 4.95357 12.1195 5.75714 11.4909C4.72857 11.4695 3.86429 10.7945 3.56786 9.8659C3.92857 9.91947 4.25357 9.91948 4.625 9.82305C3.55357 9.60519 2.75 8.66233 2.75 7.52305V7.49448C3.06071 7.66948 3.425 7.77662 3.80714 7.7909C3.48587 7.5772 3.22249 7.28729 3.04053 6.94703C2.85856 6.60678 2.76365 6.22676 2.76429 5.8409C2.76429 5.40519 2.87857 5.00519 3.08214 4.65876C4.23571 6.08019 5.96786 7.00876 7.91071 7.10876C7.57857 5.51948 8.76786 4.23019 10.1964 4.23019C10.8714 4.23019 11.4786 4.51233 11.9071 4.96948C12.4357 4.86948 12.9429 4.67305 13.3929 4.40519C13.2179 4.94805 12.85 5.40519 12.3643 5.69448C12.8357 5.64448 13.2929 5.51233 13.7143 5.33019C13.3964 5.79805 12.9964 6.21233 12.5393 6.54448Z" fill="#B4B4B4"/>
</svg>
